<svg xmlns="http://www.w3.org/2000/svg" xmlns:xlink="http://www.w3.org/1999/xlink" viewBox="0 0 257.94 56.69"><defs><style>.cls-1{fill:none;}.cls-2{fill:#a13f0b;}.cls-3{fill:#dab293;}.cls-4{fill:#005c30;}.cls-5{clip-path:url(#clip-path);}.cls-6,.cls-7{fill:#094;}.cls-15,.cls-6,.cls-8,.cls-9{fill-rule:evenodd;}.cls-13,.cls-8{fill:#fff;}.cls-9{fill:#914623;}.cls-10{fill:#13ae67;}.cls-11{fill:#89c997;}.cls-12{fill:#cae5cd;}.cls-14,.cls-15{fill:#231815;}</style><clipPath id="clip-path"><path class="cls-1" d="M7.14,28.35A21.21,21.21,0,1,0,28.35,7.14,21.21,21.21,0,0,0,7.14,28.35"/></clipPath></defs><title>资源 1</title><g id="图层_2" data-name="图层 2"><g id="图层_1-2" data-name="图层 1"><path class="cls-2" d="M.38,28.35a28,28,0,1,1,28,28,28,28,0,0,1-28-28"/><path class="cls-3" d="M28.35,56.69A28.35,28.35,0,1,1,56.69,28.35,28.38,28.38,0,0,1,28.35,56.69m0-55.93A27.59,27.59,0,1,0,55.93,28.35,27.63,27.63,0,0,0,28.35.76"/><path class="cls-4" d="M7.14,28.35A21.21,21.21,0,1,1,28.35,49.56,21.2,21.2,0,0,1,7.14,28.35"/><g class="cls-5"><path class="cls-6" d="M28.32,41.68a1.76,1.76,0,0,1-.2.26c-.11.11-.26.21-.23.25l.09.08V44a3.13,3.13,0,0,0-.93.05,6.08,6.08,0,0,0-.59.35,1.6,1.6,0,0,1-.67.18c-.13,0-.33.29-.51.36a5.63,5.63,0,0,0-.54.21c-.22.11-.23.41-.36.46s-.33,0-.41.23-.42.17-.46.23-.35.42-.46.43a2.6,2.6,0,0,0-.86.46c-1.41.12-2,.23-2,.23l16.38,0A8,8,0,0,0,35,46.92a4.35,4.35,0,0,0-.82-.46,5.15,5.15,0,0,1-.56-.23c-.19-.06-.38,0-.44,0a.5.5,0,0,0-.38-.15c-.18,0-.14-.09-.21-.26s-.25-.18-.41-.26-.39-.35-.53-.39-.29,0-.38,0-.17-.29-.34-.34-.57-.07-.67-.18a6.42,6.42,0,0,0-.69-.42A2,2,0,0,0,28.7,44V42.23s.07,0,.06-.07-.14-.13-.23-.22a1.76,1.76,0,0,1-.21-.26"/><path class="cls-6" d="M20.85,47.28a.15.15,0,0,0,.14.13,2.92,2.92,0,0,1,.8.29c.45.26.52,1.17.52,1.17H23v.23h.55s-.33,0-.17.06.6,0,.55,0-.65.07-.52.07a4.07,4.07,0,0,0,.92,0c.09-.07,0-.36,0-.36h-1s0-.14-.11-.15H22.9s-.19-1-.8-1.24a3.17,3.17,0,0,0-1.25-.21"/><path class="cls-6" d="M23.2,47.58s0,.85,0,1,.18.07.18,0a7.1,7.1,0,0,0,0-.92c0-.08-.16,0-.16,0"/><path class="cls-6" d="M23.58,47.45a6,6,0,0,0,0,1.13c0,.06.2.07.2,0s0-1.1,0-1.15-.17-.09-.2,0"/><path class="cls-6" d="M24.05,47.51c-.11,0-.09.17-.09.34s0,.67.09.67.07-.59.07-.67,0-.35-.07-.34"/><path class="cls-6" d="M28.13,47.57c-.12,0-.12.09-.12.3s0,.7.14.7.09-.6.09-.72,0-.28-.11-.28"/><path class="cls-6" d="M28.57,47.37c-.18,0-.14.21-.14.41s0,.85.12.85.12-.61.12-.83,0-.43-.1-.43"/><path class="cls-6" d="M28.93,47.61c-.07,0-.07.06-.07.27s0,.69.07.69S29,48,29,47.85s0-.24-.11-.24"/><path class="cls-6" d="M33,47.57c-.12,0-.12.09-.12.3s0,.69.13.69.09-.59.09-.71,0-.28-.1-.28"/><path class="cls-6" d="M33.39,47.37c-.17,0-.14.21-.14.41s0,.85.12.85.12-.61.12-.83,0-.43-.1-.43"/><path class="cls-6" d="M33.76,47.61c-.07,0-.07.06-.07.27s0,.69.07.69.09-.59.11-.72,0-.24-.11-.24"/><path class="cls-7" d="M29.22,48.88a.84.84,0,0,0,0,.44,2.24,2.24,0,0,1-.52,0c-.07,0,.29,0,.22-.08a1.68,1.68,0,0,0-.18,0c-.08,0,.07,0,.08-.09s-.26,0-.29,0,.11-.07.11-.07l-.49,0,.1-.07h-1s.05-1.06-.56-1.3a2.16,2.16,0,0,0-1.46-.06c-.52.18-.65,1.06-.73,1.11a.09.09,0,0,1-.13,0,2.37,2.37,0,0,1,.32-.92,1.65,1.65,0,0,1,1.22-.5,2.27,2.27,0,0,1,1.7.45,2.15,2.15,0,0,1,.33,1.11l1.15,0a3.58,3.58,0,0,1,.43-1,1.63,1.63,0,0,1,1.22-.5,2.27,2.27,0,0,1,1.7.45,2.15,2.15,0,0,1,.33,1.11l1.14,0a3.14,3.14,0,0,1,.66-1.31,2.06,2.06,0,0,1,1.2-.27v.42a2.45,2.45,0,0,0-1.19.17,1.93,1.93,0,0,0-.48,1c0,.13.06.09,0,.16a2,2,0,0,1-.62.11c-.08,0,.3-.12.31-.14s-.54.13-.62.13l.33,0-.53,0,.16,0h-1s.05-1.06-.57-1.3A2.15,2.15,0,0,0,30,47.59c-.52.18-.65,1.06-.72,1.11a.75.75,0,0,0-.08.18"/></g><path class="cls-3" d="M28.35,49.83A21.48,21.48,0,1,1,49.83,28.35,21.5,21.5,0,0,1,28.35,49.83m0-42.42A20.94,20.94,0,1,0,49.29,28.35,21,21,0,0,0,28.35,7.41"/><path class="cls-8" d="M25.85,45.14h-.19c-.08.27-.22.3-.55.32v.17h.47v1.19h.27Z"/><path class="cls-8" d="M27.32,46.26a.56.56,0,0,0,.47-.2h0c-.06.44-.21.63-.48.63s-.33-.1-.35-.27h-.25c0,.16.13.45.6.45.7,0,.73-.77.73-.95s-.06-.78-.7-.78a.58.58,0,0,0-.65.58.56.56,0,0,0,.63.54"/><path class="cls-6" d="M27.36,46.07c-.17,0-.41,0-.41-.36a.36.36,0,0,1,.39-.38c.29,0,.41.17.41.36a.36.36,0,0,1-.39.38"/><polygon class="cls-8" points="29.81 46.41 29.81 46.23 29.52 46.23 29.52 45.14 29.31 45.14 28.38 46.2 28.38 46.41 29.27 46.41 29.27 46.82 29.52 46.82 29.52 46.41 29.81 46.41"/><polygon class="cls-6" points="29.26 45.47 29.27 45.47 29.27 46.23 28.62 46.23 29.26 45.47"/><path class="cls-8" d="M31.55,46c0-.35-.11-.86-.69-.86s-.7.51-.7.86.12.87.7.87.69-.52.69-.87"/><path class="cls-6" d="M31.28,46c0,.42-.13.68-.42.68s-.43-.26-.43-.68.14-.67.43-.67.42.25.42.67"/><path class="cls-8" d="M24,3c0-.1,0-.24.08-.25s.08.08.16.07a.61.61,0,0,0,.13,0l.17-.09c.11,0,.18-.11.29-.16s.18,0,.24-.06.63-.33.69-.34.13.05.18,0,.29,0,.33,0,.05.11.07.12a.41.41,0,0,1,.15.22,1.11,1.11,0,0,1-.07.2.35.35,0,0,1,0,.19,1.24,1.24,0,0,0-.12.3s-.11.15-.12.19c-.08.27-.17.46-.23.73,0,0-.06.13-.09.12a.18.18,0,0,0-.14,0s-.1,0-.13.06-.18,0-.2.09a.25.25,0,0,0,0,.17s.14,0,.16-.06.07-.08.12-.07a1.06,1.06,0,0,0,.18,0,.08.08,0,0,1,.08.07.49.49,0,0,0,.08.21.16.16,0,0,1,0,.1.45.45,0,0,1-.14.13,1.06,1.06,0,0,0-.17.1.11.11,0,0,0,0,.11c0,.06.06.06.09.06a2.23,2.23,0,0,1,.24-.08l.18,0a1.43,1.43,0,0,1,.22-.08c.07,0,.14-.07.2,0s.17.1.19.23a.41.41,0,0,1-.23.46c-.07,0,0-.05-.27,0l-.43.08a1.52,1.52,0,0,1-.23,0,1.31,1.31,0,0,0-.21,0c-.07,0-.13.06-.22.07a.77.77,0,0,0-.28.09,1.15,1.15,0,0,1-.28.07,1.09,1.09,0,0,1-.29.14c-.05,0-.19,0-.2-.08A1,1,0,0,1,24,5.92s0-.09,0-.12A.17.17,0,0,1,24,5.66s0-.07.06-.07,0,0,.09,0a1.1,1.1,0,0,0,.25-.12,2.49,2.49,0,0,1,.3-.19c0-.07,0-.09-.06-.08a.22.22,0,0,1-.14,0,.15.15,0,0,1-.12,0,.22.22,0,0,1,0-.11.65.65,0,0,1,0-.14s0-.1.06-.11l.07,0,.08,0h.08a.17.17,0,0,0,.06-.08.49.49,0,0,0,0-.16s-.05,0-.09,0l-.12.06-.11,0h-.09s0,0-.06-.07,0-.07-.05-.1-.08-.11-.1-.14a.52.52,0,0,1-.07-.16c0-.11.07-.2.05-.27a2.53,2.53,0,0,1-.1-.4s-.06-.1-.07-.17a.33.33,0,0,1,0-.14A.83.83,0,0,0,24,3"/><path class="cls-8" d="M23.83,2.92s0,.14,0,.2-.05.1,0,.23,0,.1-.1.17a2.23,2.23,0,0,0-.17.25.37.37,0,0,0,0,.25s0,.13,0,.17.09,0,.13,0,0,.06.06.12.1.12.11.18,0,.06,0,.08a1.18,1.18,0,0,0-.33.41.24.24,0,0,0,0,.15l.14,0s.12,0,.14.06a.25.25,0,0,1,.06.14c0,.21-.14.35-.3.49s-.43.28-.56.38-.19.26-.25.3-.08,0-.12,0-.09,0-.17,0,0-.1-.09-.14a.74.74,0,0,1-.12-.13.61.61,0,0,1-.08-.25.48.48,0,0,1,.22-.29s.11-.11.14-.13a.23.23,0,0,0,.08-.12.52.52,0,0,0,0-.11c0-.06,0-.1,0-.14a.18.18,0,0,0-.06-.1A.34.34,0,0,1,22.54,5s-.13-.12-.14-.19a.2.2,0,0,1,.16-.22h.12c.08,0,.13-.1.16-.17s0-.19,0-.27-.1-.09-.15-.1a.35.35,0,0,0-.17,0s-.1-.06-.12-.1,0,0-.09,0-.07-.15-.07-.19,0,0,.08-.07,0-.07.05-.11.08-.08.13-.1.14,0,.18,0c.25-.14.5-.47.75-.49a.49.49,0,0,0,.23,0c.07-.06.14.11.17.17"/><path class="cls-9" d="M25.56,2.71s0,.11,0,.14a.43.43,0,0,1-.11.21.69.69,0,0,1-.2,0c-.06,0-.08-.12-.08-.17s.22-.14.35-.2"/><path class="cls-9" d="M24.69,3.07c.09,0,.13,0,.13.12s-.09.13-.16.2-.07,0-.07,0,0-.11,0-.15.11-.1.14-.14"/><path class="cls-9" d="M25.36,3.44s.09,0,.1,0a.35.35,0,0,1,0,.12.25.25,0,0,1-.15.15s-.1,0-.1-.07,0-.11,0-.15a.37.37,0,0,0,.14-.07"/><path class="cls-9" d="M24.83,3.68a.05.05,0,0,1,.06,0,.27.27,0,0,1-.08.2s-.11,0-.17,0a.16.16,0,0,1,0-.09.21.21,0,0,1,0-.11l.19-.06"/><path class="cls-8" d="M16.57,5.94l.15,0s.1-.08.14-.08a1.17,1.17,0,0,1,.27,0c.06,0,.13.12.16.13a.24.24,0,0,1,.08.13,1.8,1.8,0,0,0-.07.27,1,1,0,0,1,0,.18c0,.2,0,.41,0,.62a1.77,1.77,0,0,1,0,.21s0,.06-.08.07-.06.08,0,.14a.53.53,0,0,0,.12.15,6.29,6.29,0,0,1,.45.74.33.33,0,0,1,0,.3s0,.16-.06.24-.06.14-.09.15a.1.1,0,0,1-.09,0s-.09,0-.12,0h-.12a.46.46,0,0,1-.17,0c-.05,0-.08,0-.15-.09s-.3,0-.32-.08.09-.12.1-.13.2,0,.23-.05.11-.12,0-.26a.47.47,0,0,0-.07-.12.85.85,0,0,1-.1-.17,1.13,1.13,0,0,1-.11-.24S16.65,8,16.63,8s-.11,0-.15,0a.6.6,0,0,1-.08.08.79.79,0,0,1-.16.08l-.09,0s-.06-.06-.1-.09L16,8a.76.76,0,0,1-.08-.11l-.15-.15c0-.07-.11-.11-.17-.2s-.13-.19-.14-.22,0-.25,0-.33l.09-.14a.4.4,0,0,1,.16,0l.09,0A.58.58,0,0,0,16,6.7s.1-.09.15-.15a.49.49,0,0,1,.1-.13s0,0,.08-.09a.45.45,0,0,0,.11-.13.23.23,0,0,1,.05-.1.59.59,0,0,1,0-.08s0,0,.07-.08"/><path class="cls-8" d="M17.5,7.23s.07,0,.13,0,.11,0,.14,0a.49.49,0,0,0,.13-.06s.1,0,.13,0L18.12,7c.05,0,.27,0,.35.07l.11,0a.35.35,0,0,1,.07.12.34.34,0,0,1,0,.15s0,.12,0,.17a.69.69,0,0,1,0,.13.31.31,0,0,1-.1.13s-.08,0-.11.07-.05.11-.08.13a.12.12,0,0,1-.14,0s-.05-.1-.09-.13a1.06,1.06,0,0,1-.19-.11c-.05-.07-.14-.06-.16-.1a.33.33,0,0,0-.15-.14.21.21,0,0,1-.05-.11s-.08-.11-.05-.17"/><path class="cls-8" d="M15.83,8.71c.1-.07.21.11.25.09a.71.71,0,0,0,.12-.13l.18-.11a.09.09,0,0,1,.07,0,.22.22,0,0,1,.05.11.38.38,0,0,1,.05.12l0,.13s-.05.07,0,.1.05.12,0,.19a.31.31,0,0,1-.07.14c0,.06-.09.06-.12.09s-.07.14-.12.17-.23.08-.3,0a.78.78,0,0,1-.05-.14s-.08-.05-.09-.08,0-.11,0-.15a.56.56,0,0,1,0-.36s.05-.11.08-.12"/><path class="cls-8" d="M15.3,4.65l.12-.05.13-.08s0,0,.1,0,.11,0,.15,0,.09.1.13.12a.36.36,0,0,1,.22.16c.09.13.05.16,0,.28s0,.1.07.06l.36-.35.2-.2s.08,0,.13,0,.1,0,.13,0a.2.2,0,0,0,.19,0,.1.1,0,0,1,.1,0l.07.13c.05.1-.07.25-.11.34s-.07,0-.15,0l-.2.15-.15.12-.13.13s-.08.09-.12.15-.09,0-.15.08a2.16,2.16,0,0,1-.16.22c-.18.19-.42.38-.42.43s-.09.06-.12.12-.09.07-.12.11-.08.07-.1.11a.29.29,0,0,1-.1.08.93.93,0,0,0-.1.1.21.21,0,0,1-.1.06L15.1,7s0,.08-.1.12-.08.09-.09.1,0,.08-.06.11,0,0-.11,0-.1.08-.15.08-.1-.06-.13-.13l-.08-.12a.15.15,0,0,1,0-.11,1,1,0,0,1,.19-.32s.08,0,.11,0,.08-.12.12-.15a2,2,0,0,0,.34-.31c.06-.06.14-.07.15-.12l.25-.28s.09-.08.08-.14-.05-.06-.06-.08-.07,0-.11,0a.16.16,0,0,1-.12,0s0-.06,0-.1a.87.87,0,0,1,0-.1.35.35,0,0,0,0-.12c0-.07-.22-.16-.26-.2a.12.12,0,0,1,0-.11c0-.07.09-.08.14-.12a.24.24,0,0,0,.07-.09l.09-.06s0-.06.06-.09"/><path class="cls-9" d="M16.51,6.73a.31.31,0,0,1,.1-.08s0,.08,0,.14a.74.74,0,0,1-.06.18c0,.09,0,.14-.08.21a.58.58,0,0,1-.13.14.1.1,0,0,1-.14,0,.14.14,0,0,1,0-.15,1.19,1.19,0,0,1,.15-.21.93.93,0,0,0,.05-.1s.06,0,.08-.1"/><path class="cls-8" d="M49,10.9a.28.28,0,0,1,0,.22c0,.07-.13.1-.2.09a.58.58,0,0,0-.24,0s-.12.07-.12.11a.23.23,0,0,1,0,.16c0,.05-.14,0-.42.12l-.25,0s0,.14.05.19-.12.08,0,.16.19.09.23,0-.06-.09-.07-.13.08-.15.1-.14a.18.18,0,0,0,.12,0s.08,0,.11,0,0-.1.11-.12a.17.17,0,0,1,.14,0s.09,0,.13,0l.12-.06c.07-.07,0-.19.1-.22s.46.16.51.17.05,0,.07,0a.13.13,0,0,1,.11.09,1.27,1.27,0,0,1,0,.18.13.13,0,0,1-.06.11s-.15.07-.16.12-.17,0-.27,0-.27.09-.4.15a.49.49,0,0,0-.13.06l-.15.07a.74.74,0,0,0-.17.12s0,.07,0,.09.17.06.2.07.08.05.09.09,0,.1,0,.12,0,0,0,.11.07.07.06.13a.59.59,0,0,1-.17.26.58.58,0,0,1-.26.13.74.74,0,0,1-.36-.23s-.08-.06-.13,0A.19.19,0,0,1,47.7,13s-.09-.1-.15-.15a.57.57,0,0,0-.42-.08.41.41,0,0,1-.19,0h-.25a.24.24,0,0,0-.16.11s0,0,0,.08.13,0,.17.08.1,0,.13,0,0,.12.06.21a1.6,1.6,0,0,0,.08.2s0,.08,0,.12-.12.1-.19.1a.25.25,0,0,1-.15,0l-.17-.12-.13-.07c-.06,0-.27-.2-.33-.14s-.1.12-.16.16l-.16.12a.5.5,0,0,0-.19.12.29.29,0,0,1-.17,0c-.11,0-.23.16-.34.1a1.67,1.67,0,0,1-.23-.12c-.09-.08-.11-.06-.17-.1a.53.53,0,0,1-.19-.21c0-.05.07-.1.11-.13s0-.34,0-.39.08,0,.15.06.23.18.3.22.4-.09.55-.13.08,0,0-.13a1.41,1.41,0,0,0-.21-.16,1.18,1.18,0,0,1-.22-.17s-.19-.08-.22-.11-.1-.07-.1-.18a.24.24,0,0,0,0-.09s.07-.1.09-.12a1.18,1.18,0,0,1,.18-.11.33.33,0,0,1,.28.08s.06.13.09.16a1.13,1.13,0,0,0,.2.05c.07,0,.12.09.18.12a.47.47,0,0,0,.14.05s.06,0,.09,0,.09-.08.13-.09a.64.64,0,0,0,.16-.06s-.06-.08-.08-.1-.1,0-.16,0a.49.49,0,0,1-.17-.06.16.16,0,0,1-.08-.1c0-.06,0-.07,0-.11a.35.35,0,0,1,.15-.1c.05,0,.18-.13.34-.12s.09.12.14.13l.08,0a1.49,1.49,0,0,1,.14.12l.17.12s.08.08.13.09l.12.06.09,0a1.54,1.54,0,0,1,.12.13s.09.08.1.1,0,.09.08.14.14,0,.17.07.18,0,.19-.06a1,1,0,0,0-.17-.14s-.14-.13-.18-.15a.75.75,0,0,1-.27-.23.53.53,0,0,0-.15-.11l-.16-.1a1.65,1.65,0,0,0-.23-.2l-.18-.13a.9.9,0,0,0-.27-.12.94.94,0,0,0-.27,0,.24.24,0,0,1-.12,0c-.17,0-.32,0-.43-.07a.13.13,0,0,1,0-.14.68.68,0,0,1,.16-.28c.08-.07.14,0,.24-.21a.14.14,0,0,1,.13-.06.2.2,0,0,0,.1,0,3.23,3.23,0,0,0,.42-.09s0,0,0,0a1,1,0,0,1-.17.23.07.07,0,0,0,0,.12.5.5,0,0,0,.18.09s.07,0,.09,0,0-.09.06-.12l.12-.16.31-.24a4,4,0,0,1,.28-.31.7.7,0,0,0,.15-.18c0-.05.1-.08.15,0l.08.08s0,0,.07,0,0,0,0,.08a1.06,1.06,0,0,1-.09.11s-.1.09-.11.12a.13.13,0,0,1-.07.08.2.2,0,0,0-.09.07s-.08.05-.11.09l-.19.2s-.05.11-.12.16l-.1.09c-.06,0-.14,0-.16.07a.14.14,0,0,0,0,.11s.11.06.14.09l.09.09a.78.78,0,0,1,.18.13.41.41,0,0,0,.11.06.26.26,0,0,0,.11,0,.05.05,0,0,0,.06,0c0-.05,0-.07-.08-.1s-.11,0-.11-.06,0-.07.05-.1.07-.09,0-.11-.11,0-.13.06-.07,0-.1,0-.07,0-.09,0a.18.18,0,0,1,.06-.17,2.41,2.41,0,0,0,.24-.21c.06,0,.09-.13.14-.17l.22-.21.06-.09a.26.26,0,0,1,.15-.05.15.15,0,0,1,.12,0s0,.11-.09.16a.11.11,0,0,0,0,.09,1.44,1.44,0,0,1-.22.27c-.05,0,0,.06,0,.09s.11.09.11.14,0,.08,0,.1.18,0,.22,0,.11-.18.09-.21-.09,0-.14-.07-.08,0-.1,0S47.89,11,48,11a.48.48,0,0,0,.16-.07.75.75,0,0,0,.09-.18s.14,0,.16,0,0,.13,0,.16.17,0,.26,0,.15-.09.23-.06,0,.05.07.06.06,0,.07.05"/><path class="cls-8" d="M8.16,11.87s.09,0,.13,0,.09-.09.15-.13l.13-.15a.35.35,0,0,1,.11-.07s.08,0,.12,0a.4.4,0,0,1,.22,0,.65.65,0,0,1,.08.09l.14.13s0,.12.08.22a1.14,1.14,0,0,0,.14.16l.27.28.15.19.13.14a.18.18,0,0,0,.13.06l.07.05.11.06s.06.13.14.24a.2.2,0,0,1,0,.16,1,1,0,0,1-.06.33c0,.1,0,.26,0,.33a1.71,1.71,0,0,1-.09.27,1.23,1.23,0,0,0-.08.38c0,.06-.06.13-.08.2a2.73,2.73,0,0,1,0,.39c0,.06-.18,0-.27,0a.55.55,0,0,0-.16,0c-.05,0-.1-.07-.14-.09l-.14-.06a.14.14,0,0,1,0-.13s.07-.06.08-.1a1.3,1.3,0,0,0,0-.21.77.77,0,0,1,.09-.2c.05-.13.06-.29.09-.39s.05-.17,0-.23l-.28-.25a.17.17,0,0,0-.1,0,.5.5,0,0,1-.1.14.77.77,0,0,0-.06.15s0,.08-.07.09A.11.11,0,0,1,9,14a.91.91,0,0,1-.16-.11.31.31,0,0,1-.12-.07,1,1,0,0,0-.19-.19.16.16,0,0,1,0-.22c0-.07,0-.15.1-.21a1.47,1.47,0,0,0,.1-.13.94.94,0,0,0,.07-.22c0-.08,0-.15-.07-.22s-.16-.23-.27-.34a.32.32,0,0,0-.28-.11.09.09,0,0,1-.06-.06.36.36,0,0,0,0-.15.08.08,0,0,1,0-.08"/><path class="cls-8" d="M9.57,10c.06-.05.1,0,.14,0s.06,0,.08-.05a.17.17,0,0,1,.12,0,.61.61,0,0,1,.22.12c.13.13.07.25.12.36a1.37,1.37,0,0,0,.1.14c.08.05.16,0,.14-.08s0-.12,0-.16.12,0,.22-.12.19.05.27.07a.44.44,0,0,1,.15.1.09.09,0,0,1,0,.12l-.08.16a.35.35,0,0,0,0,.17c0,.08-.05.13-.06.22a1,1,0,0,1-.1.34c0,.07.13.25.18.32a.58.58,0,0,0,.13.11c.09,0,.14.12.27.13a.39.39,0,0,0,.25-.11,1.09,1.09,0,0,1,.13-.11s.09-.07.11-.07.1,0,.11-.06a.61.61,0,0,1,.15-.12c.08,0,.19,0,.25.09s.08.17.13.25.09.12.08.18-.09.12-.12.17a.43.43,0,0,1-.1.18s-.11,0-.14.07a.46.46,0,0,0-.16.14l-.15.16a1.46,1.46,0,0,0-.16.09c-.07.05-.14.16-.2.19l-.14,0a1,1,0,0,1-.23,0,1.81,1.81,0,0,1-.19-.15l-.24-.14-.13-.11a.61.61,0,0,0-.14-.1,1.28,1.28,0,0,1-.21-.16c-.09-.09-.08-.13-.25-.33,0,0,0-.11-.06-.13s-.06-.11-.12-.18-.11-.17-.13-.19l-.23-.24a.71.71,0,0,1-.12-.18,1.87,1.87,0,0,0-.2-.28,1.14,1.14,0,0,1-.16-.16c0-.07,0-.1,0-.15s.1-.07.14-.11a.83.83,0,0,0,.07-.13s.09-.05.11-.07,0-.11.09-.15"/><path class="cls-8" d="M34.73,3.05a.26.26,0,0,1,.09.09,2,2,0,0,1,.12.19.76.76,0,0,1,0,.16s0,.09,0,.11-.15.11-.31.17a1,1,0,0,0-.23.11.48.48,0,0,1-.18.07c-.17,0-.3,0-.35.13s0,.11,0,.27a.25.25,0,0,1-.08.1.18.18,0,0,0-.06.1.53.53,0,0,1-.06.1s0,.07,0,.11-.09.26-.06.31a4,4,0,0,1,.55.13c.07,0,.11,0,.16,0l.14,0,.14.07.13.12c0,.05.14.09.15.2a.66.66,0,0,1,0,.14,0,0,0,0,0,0,0,.09.09,0,0,1,0,.07.2.2,0,0,1-.08.1.18.18,0,0,1-.12.08l-.19,0a1.21,1.21,0,0,0-.19-.08l-.21,0-.34-.11s-.25,0-.31-.08a.81.81,0,0,0-.32,0l-.32,0c-.11,0-.24-.08-.34-.1a3.09,3.09,0,0,0-.65,0c-.27,0-.79.12-.82.1s-.13-.2-.22-.34a.38.38,0,0,1,0-.16.49.49,0,0,0,0-.2c.05-.06.31-.09.35-.09s.12.06.18.06l.42,0H32l.46-.07c.3,0,.4-.37.47-.48A.61.61,0,0,0,33,4.07c0-.06,0-.14,0-.16s-.13,0-.17,0a.4.4,0,0,1-.21,0c-.06,0,0-.12,0-.2a.54.54,0,0,0-.07-.26.4.4,0,0,1,0-.19s0-.15,0-.18.1-.08.19-.1.18.11.26.14a6.26,6.26,0,0,0,.7.05h.21A2.33,2.33,0,0,0,34.46,3a.36.36,0,0,1,.14,0c.07,0,.1,0,.13,0"/><path class="cls-8" d="M41.58,5.58c.05,0,.21.1.21.13a.4.4,0,0,0,.08.23c0,.06,0,.08,0,.14s0,.09,0,.12l-.21.16s-.09.1-.07.12.06,0,.1,0l.13,0s.1,0,.15,0,.17,0,.2,0,.22.07.22.12.08.11.16.18.05.22,0,.33,0,.06-.09,0-.08,0-.15,0a1.17,1.17,0,0,1-.31,0,.37.37,0,0,1-.18,0,.83.83,0,0,0-.18-.07,1,1,0,0,0-.3,0,.56.56,0,0,0-.16.07.25.25,0,0,0-.08.21,2.48,2.48,0,0,0,.17.67c0,.11,0,.39.11.53a3.42,3.42,0,0,1,.19.4,1.24,1.24,0,0,0,.14.18,1.18,1.18,0,0,1,.08.16l.25.3s.08.07.08.11-.07,0-.08.07,0,.09-.08.1a.25.25,0,0,1-.24,0s-.08,0-.11,0-.06,0-.08,0a.79.79,0,0,1-.16-.1s-.11-.05-.18-.1A.53.53,0,0,1,41,9.51c-.06-.11-.16-.11-.22-.17a.23.23,0,0,1-.08-.17.56.56,0,0,0,0-.48,3.41,3.41,0,0,1-.06-.43s0-.2-.06-.25-.13-.41-.16-.47-.26.16-.42.21-.28.06-.5.13a1.14,1.14,0,0,1-.45,0c-.08,0-.26,0-.32,0s-.2-.06-.26-.07a.29.29,0,0,1-.14,0s0-.08,0-.12,0-.12,0-.16l-.09-.1s0-.06.12,0h.21l.16,0s.07,0,.1,0a7.63,7.63,0,0,0,.79-.2A1,1,0,0,0,40,6.9s.11-.08.12-.12-.07,0-.1-.06l-.08,0a.53.53,0,0,0-.12,0,.19.19,0,0,1-.1-.06c-.05,0-.05-.11-.12-.16a.32.32,0,0,1,0-.33c0-.07.07-.11.13-.11a1,1,0,0,1,.14,0s.08,0,.13,0a.38.38,0,0,1,.12,0c.05,0,.15.1.22.14a1.11,1.11,0,0,0,.44.08.85.85,0,0,1,.27-.3,1.15,1.15,0,0,0,.14-.2.62.62,0,0,0,.1-.19.06.06,0,0,1,.09,0c.11,0,.11.07.14.09s.1,0,.13,0"/><path class="cls-7" d="M28.35,41.12l-2.91-.63.84-3.35a66,66,0,0,1-13-2.38,9.33,9.33,0,0,1-2.07-2.31,19.54,19.54,0,0,0,3.29.52c2.92.12,7.5-.27,10.81.09,0,0,1.53,0,3.06,0s3.06,0,3,0c3.31-.36,7.89,0,10.81-.09a19.54,19.54,0,0,0,3.29-.52,9.11,9.11,0,0,1-2.07,2.31,65.74,65.74,0,0,1-13,2.38l.83,3.35Z"/><path class="cls-10" d="M28.35,29c2.18,0,4.43,0,4.41,0a55.57,55.57,0,0,1,9-.35,14.34,14.34,0,0,0,2.33-.3A8,8,0,0,1,42,30.58a15.85,15.85,0,0,1-2.59,1.19,51.38,51.38,0,0,1-6.23,1.38c-1,.12-1.94.25-2.78.31l.77,3.14-2.79.47-2.8-.47.77-3.14c-.84-.06-1.8-.19-2.77-.31a51,51,0,0,1-6.23-1.38,15.48,15.48,0,0,1-2.59-1.19,8.08,8.08,0,0,1-2.13-2.25,14.34,14.34,0,0,0,2.33.3,55.57,55.57,0,0,1,9,.35s2.23,0,4.42,0"/><path class="cls-11" d="M28.37,33.19h-.05l-2.64-.31.72-3a8.1,8.1,0,0,1-2.35-.14A19.63,19.63,0,0,1,19,28.22a12.39,12.39,0,0,1-2.59-1.68,8.39,8.39,0,0,1-2-2.39,21,21,0,0,0,2.28.29c1.33.07,3.88.16,7.36.45,0,0,2.19,0,4.34,0s4.32,0,4.33,0c3.48-.29,6-.38,7.37-.45a20.3,20.3,0,0,0,2.27-.29,8.39,8.39,0,0,1-2,2.39,12.13,12.13,0,0,1-2.59,1.68,19.63,19.63,0,0,1-5.06,1.48,8,8,0,0,1-2.34.14l.71,3Z"/><path class="cls-12" d="M28.35,28.87l-2.52-.16L26.48,26a3.42,3.42,0,0,1-1.75,0,12.41,12.41,0,0,1-3.64-1.16,10.94,10.94,0,0,1-3.39-2.71A10.57,10.57,0,0,1,16,19.57a12.74,12.74,0,0,0,1.37.32,55.25,55.25,0,0,0,8,1h5.84a55,55,0,0,0,8-1,12.74,12.74,0,0,0,1.37-.32A10.46,10.46,0,0,1,39,22.16a11.1,11.1,0,0,1-3.4,2.71A12.32,12.32,0,0,1,32,26a3.42,3.42,0,0,1-1.75,0l.65,2.72Z"/><path class="cls-13" d="M26.07,24.43,26.66,22a2.51,2.51,0,0,1-1.59.05,2.17,2.17,0,0,1-1.37-1.14,3,3,0,0,1-2-.56,2.75,2.75,0,0,1-.86-1.72,4.27,4.27,0,0,1-2.24-1.4,3.84,3.84,0,0,1-.84-2.38A29.8,29.8,0,0,0,27,16.24l.49-2.54c.06-.27.18-1,.83-1h0c.64,0,.77.78.82,1l.49,2.54A29.8,29.8,0,0,0,39,14.87a3.78,3.78,0,0,1-.84,2.38,4.23,4.23,0,0,1-2.24,1.4A2.69,2.69,0,0,1,35,20.37a3,3,0,0,1-2,.56,2.14,2.14,0,0,1-1.36,1.14A2.53,2.53,0,0,1,30,22l.6,2.41Z"/><path class="cls-4" d="M30.85,24.61h-5l.57-2.33a2.8,2.8,0,0,1-.65.08,2.36,2.36,0,0,1-.75-.12,2.41,2.41,0,0,1-1.42-1.13h-.13a3,3,0,0,1-1.89-.61,2.8,2.8,0,0,1-.91-1.72,4.28,4.28,0,0,1-2.22-1.43,4,4,0,0,1-.88-2.49v-.24l.24.07a29.32,29.32,0,0,0,9,1.37h0c.1-.52.44-2.23.47-2.4v0c.06-.32.22-1.16,1-1.16h0c.76,0,.93.84,1,1.16v0c0,.17.37,1.88.47,2.4h0a29.32,29.32,0,0,0,9-1.37l.24-.07v.24a4,4,0,0,1-.88,2.49A4.28,4.28,0,0,1,36,18.79a2.78,2.78,0,0,1-.9,1.72,3.13,3.13,0,0,1-2,.6,2.34,2.34,0,0,1-1.42,1.13,2.31,2.31,0,0,1-.75.12,2.88,2.88,0,0,1-.65-.08Zm-4.55-.35h4.1l-.62-2.54.32.14a2.6,2.6,0,0,0,.83.14,1.91,1.91,0,0,0,.64-.1,2,2,0,0,0,1.26-1l0-.13.14,0h.23a2.68,2.68,0,0,0,1.66-.53,2.48,2.48,0,0,0,.79-1.59V18.5l.14,0A4.07,4.07,0,0,0,38,17.14a3.59,3.59,0,0,0,.79-2,30.24,30.24,0,0,1-8.91,1.3h-.31l0-.14L29,13.74v0c-.09-.43-.23-.88-.64-.88h0c-.42,0-.56.45-.64.88v0l-.49,2.54,0,.14h-.32a30.24,30.24,0,0,1-8.91-1.3,3.67,3.67,0,0,0,.79,2,4.08,4.08,0,0,0,2.14,1.33l.13,0v.14a2.54,2.54,0,0,0,.79,1.59,2.71,2.71,0,0,0,1.67.53h.22l.14,0,.05.13A2.15,2.15,0,0,0,25.76,22a2.53,2.53,0,0,0,.83-.14l.33-.14Z"/><path class="cls-13" d="M28.11,13.86a2.58,2.58,0,0,0,.56-.12,11.23,11.23,0,0,0,5-2.88c.11-.12.26-.31.26-.31.12-.21.21.14-.2.64a10.54,10.54,0,0,1-5.6,3c-.27,0-.31-.33,0-.37"/><path class="cls-8" d="M30.08,13.27A2,2,0,0,1,29.79,12a2.42,2.42,0,0,1,.69-1.2,5.41,5.41,0,0,1,.23,1.34c0,.57-.63,1.11-.63,1.11"/><path class="cls-8" d="M31.55,12.52a2.07,2.07,0,0,1-.3-1.27A2.48,2.48,0,0,1,31.88,10a5.73,5.73,0,0,1,.24,1.36,1.84,1.84,0,0,1-.57,1.13"/><path class="cls-8" d="M30.18,13.6a1.46,1.46,0,0,1,1.13,0,4.09,4.09,0,0,1,1.12.81,2.08,2.08,0,0,1-1.32,0,1.41,1.41,0,0,1-.93-.86"/><path class="cls-8" d="M32.82,11.65a2.06,2.06,0,0,1-.27-1.21,2.37,2.37,0,0,1,.59-1.18,5.68,5.68,0,0,1,.21,1.3,1.73,1.73,0,0,1-.53,1.09"/><path class="cls-8" d="M33.9,10.77a1,1,0,0,0,.79-.73,4.44,4.44,0,0,0,.22-1.31,2,2,0,0,0-.87.86,1.55,1.55,0,0,0-.14,1.18"/><path class="cls-8" d="M31.68,12.86a1.89,1.89,0,0,1,1.22-.08,2.9,2.9,0,0,1,1.14.74,4.37,4.37,0,0,1-1.35.07,1.75,1.75,0,0,1-1-.73"/><path class="cls-8" d="M33,11.89a1.8,1.8,0,0,1,1.12-.41,7,7,0,0,1,1.16.16,2.15,2.15,0,0,1-1.1.63A1.85,1.85,0,0,1,33,11.89"/><path class="cls-13" d="M5.15,27.05v1.26a.89.89,0,0,1-.2.59.69.69,0,0,1-.53.2.65.65,0,0,1-.53-.25l-.06-.09a.42.42,0,0,1-.09.16.61.61,0,0,1-.55.24.84.84,0,0,1-.65-.25,1,1,0,0,1-.21-.73V27Zm-2.34.48v.66a.4.4,0,0,0,.09.32.41.41,0,0,0,.3.11.3.3,0,0,0,.26-.1.5.5,0,0,0,.1-.33v-.64Zm1.22,0v.62a.52.52,0,0,0,.08.31.29.29,0,0,0,.25.1.23.23,0,0,0,.22-.1.63.63,0,0,0,.07-.32v-.59Z"/><polygon class="cls-13" points="2.37 30.32 5.17 29.97 5.41 31.87 5.16 31.9 4.91 31.93 4.74 30.57 4.15 30.64 4.3 31.9 4.06 31.93 3.82 31.96 3.67 30.7 2.94 30.79 3.11 32.21 2.86 32.24 2.61 32.27 2.37 30.32"/><polygon class="cls-13" points="5.5 32.64 5.56 32.9 5.61 33.17 2.84 33.71 2.79 33.44 2.73 33.17 5.5 32.64"/><path class="cls-13" d="M6,34.9l.07.26.07.26-2,.53a.9.9,0,0,1-.68,0,.8.8,0,0,1-.38-.54.83.83,0,0,1,.07-.69,1.1,1.1,0,0,1,.67-.38l.16,0,.14.5L4,34.8a.76.76,0,0,0-.35.17.28.28,0,0,0-.05.27.29.29,0,0,0,.15.2.52.52,0,0,0,.3,0Z"/><polygon class="cls-13" points="6.48 36.18 6.58 36.43 6.67 36.69 4.04 37.7 3.94 37.45 3.85 37.19 6.48 36.18"/><polygon class="cls-13" points="4.63 39.09 4.53 38.86 4.42 38.63 6.98 37.43 7.1 37.69 7.22 37.95 5.86 39.73 7.66 38.89 7.76 39.12 7.87 39.35 5.31 40.54 5.2 40.3 5.08 40.05 6.48 38.23 4.63 39.09"/><path class="cls-13" d="M6.45,42.63a1.13,1.13,0,0,1-.16-1A1.62,1.62,0,0,1,7,40.79a1.68,1.68,0,0,1,1.11-.31,1.2,1.2,0,0,1,.85.57,1.19,1.19,0,0,1,.21.79,1.08,1.08,0,0,1-.39.68l-.3-.46a.46.46,0,0,0,.17-.33.52.52,0,0,0-.09-.39A.63.63,0,0,0,8.05,41a1.19,1.19,0,0,0-.73.23,1.2,1.2,0,0,0-.51.56.66.66,0,0,0,.1.61h0a.57.57,0,0,0,.48.27,1.27,1.27,0,0,0,.37-.07h0l-.34-.51.41-.26.59.91-1.27.83L7,43.27,7.24,43H7.18a.85.85,0,0,1-.74-.41Z"/><polygon class="cls-13" points="10.85 43.64 11.03 43.84 11.21 44.04 9.11 45.93 8.93 45.73 8.75 45.53 10.85 43.64"/><polygon class="cls-13" points="10.2 47.05 10.02 46.88 9.83 46.71 11.76 44.65 11.96 44.84 12.17 45.03 11.58 47.19 12.93 45.74 13.12 45.91 13.3 46.09 11.38 48.15 11.18 47.97 10.98 47.78 11.59 45.57 10.2 47.05"/><path class="cls-13" d="M14.62,48.11a.46.46,0,0,0,.06-.36.63.63,0,0,0-.25-.32.45.45,0,0,0-.31-.11.34.34,0,0,0-.26.16.21.21,0,0,0,0,.23,3.36,3.36,0,0,0,.32.43,1.89,1.89,0,0,1,.43.7.9.9,0,0,1-.79.92,1.25,1.25,0,0,1-.77-.27,1.17,1.17,0,0,1-.48-.65,1,1,0,0,1,.18-.75l.42.31a.46.46,0,0,0-.08.37.59.59,0,0,0,.25.33.76.76,0,0,0,.38.16.31.31,0,0,0,.32-.37,1.51,1.51,0,0,0-.27-.38,2.19,2.19,0,0,1-.47-.75.63.63,0,0,1,.15-.56.81.81,0,0,1,.6-.36,1,1,0,0,1,.74.24,1,1,0,0,1,.43.61,1,1,0,0,1-.15.73Z"/><polygon class="cls-13" points="16.47 48.85 15.78 48.47 15.9 48.25 16.03 48.03 17.87 49.05 17.75 49.27 17.63 49.49 16.94 49.11 15.82 51.14 15.58 51.01 15.35 50.88 16.47 48.85"/><polygon class="cls-13" points="18.45 49.33 18.69 49.45 18.94 49.56 17.74 52.12 17.5 52 17.25 51.89 18.45 49.33"/><polygon class="cls-13" points="20.05 50.56 19.31 50.31 19.39 50.07 19.47 49.84 21.46 50.52 21.38 50.76 21.3 51 20.56 50.74 19.8 52.94 19.55 52.85 19.29 52.76 20.05 50.56"/><path class="cls-13" d="M23.66,52.94a1.32,1.32,0,0,1-.45.79,1.08,1.08,0,0,1-.85.06,1,1,0,0,1-.69-.46,1.21,1.21,0,0,1-.05-.9l.43-1.7.26.06.26.07-.43,1.72a.72.72,0,0,0,0,.47.43.43,0,0,0,.33.24.46.46,0,0,0,.41,0,.75.75,0,0,0,.23-.42l.43-1.73.26.07.26.06Z"/><polygon class="cls-13" points="25.42 51.92 24.64 51.82 24.67 51.57 24.7 51.32 26.8 51.58 26.77 51.83 26.73 52.08 25.96 51.98 25.68 54.29 25.41 54.25 25.14 54.22 25.42 51.92"/><polygon class="cls-13" points="27.51 54.4 27.46 51.58 29.37 51.55 29.38 51.8 29.38 52.05 28.01 52.07 28.02 52.67 29.29 52.65 29.3 52.89 29.3 53.13 28.03 53.16 28.05 53.89 29.47 53.87 29.48 54.12 29.48 54.37 27.51 54.4"/><path class="cls-13" d="M32.22,53.79a1.91,1.91,0,0,1-.42-2.13,1.24,1.24,0,0,1,1.79-.35,1.68,1.68,0,0,1,.54,1A1.58,1.58,0,0,1,34,53.44a1.13,1.13,0,0,1-.82.57,1.12,1.12,0,0,1-1-.22m1.33-.63a1.26,1.26,0,0,0,.05-.74,1.24,1.24,0,0,0-.33-.68.6.6,0,0,0-.56-.16.58.58,0,0,0-.45.36,1.22,1.22,0,0,0,0,.75,1.24,1.24,0,0,0,.32.67.64.64,0,0,0,1-.2"/><polygon class="cls-13" points="35.49 53.41 34.62 50.73 36.37 50.16 36.45 50.4 36.53 50.63 35.29 51.04 35.48 51.65 36.57 51.3 36.64 51.53 36.72 51.76 35.63 52.11 36.01 53.24 35.75 53.33 35.49 53.41"/><polygon class="cls-13" points="38.9 49.55 38.21 49.92 38.09 49.7 37.97 49.48 39.84 48.49 39.95 48.71 40.07 48.93 39.38 49.3 40.47 51.34 40.23 51.47 39.99 51.6 38.9 49.55"/><polygon class="cls-13" points="41.95 50.52 40.41 48.16 42.02 47.12 42.15 47.33 42.29 47.54 41.14 48.28 41.47 48.78 42.53 48.09 42.66 48.3 42.8 48.5 41.73 49.19 42.13 49.81 43.33 49.03 43.47 49.24 43.6 49.45 41.95 50.52"/><path class="cls-13" d="M45.52,46.58a1.22,1.22,0,0,1,.23.82,1.07,1.07,0,0,1-.41.72,1,1,0,0,1-.92.25,1.67,1.67,0,0,1-.94-.61,1.72,1.72,0,0,1-.45-1,1,1,0,0,1,.4-.87,1.15,1.15,0,0,1,.76-.29,1.12,1.12,0,0,1,.75.34l-.42.35a.5.5,0,0,0-.37-.16.58.58,0,0,0-.58.65,1.35,1.35,0,0,0,.33.67,1.31,1.31,0,0,0,.59.43.54.54,0,0,0,.53-.11.51.51,0,0,0,.2-.37.57.57,0,0,0-.12-.42Z"/><polygon class="cls-13" points="44.86 44.65 45.04 44.45 45.22 44.25 46.01 44.96 46.69 44.2 45.9 43.5 46.08 43.3 46.27 43.09 48.36 44.98 48.18 45.18 48 45.38 47.05 44.53 46.37 45.28 47.32 46.14 47.14 46.34 46.96 46.54 44.86 44.65"/><polygon class="cls-13" points="49.39 43.66 49.24 43.87 49.1 44.08 46.79 42.46 46.95 42.23 47.11 42 49.33 42.28 47.71 41.14 47.86 40.94 48 40.73 50.31 42.35 50.16 42.57 50 42.79 47.72 42.5 49.39 43.66"/><path class="cls-13" d="M50.74,41a1.59,1.59,0,0,1-1.11-.2,1.76,1.76,0,0,1-.81-.81,1.14,1.14,0,0,1,.07-1,1.1,1.1,0,0,1,.79-.61,1.63,1.63,0,0,1,1.12.22,1.53,1.53,0,0,1,.79.8,1.22,1.22,0,0,1-.85,1.6m.35-1.43a1.21,1.21,0,0,0-.54-.5,1.4,1.4,0,0,0-.74-.18.65.65,0,0,0-.49.92,1.34,1.34,0,0,0,.56.51,1.22,1.22,0,0,0,.72.17.59.59,0,0,0,.47-.34.6.6,0,0,0,0-.58"/><polygon class="cls-13" points="52.43 38.17 49.79 37.16 49.89 36.91 49.98 36.65 52.15 37.48 52.61 36.28 52.85 36.37 53.08 36.46 52.43 38.17"/><path class="cls-13" d="M53.13,35.18a1.56,1.56,0,0,1-1.12.07,1.69,1.69,0,0,1-1-.59,1.16,1.16,0,0,1-.17-1,1.1,1.1,0,0,1,.62-.79,1.67,1.67,0,0,1,1.14-.06,1.6,1.6,0,0,1,1,.58,1.24,1.24,0,0,1-.44,1.77m0-1.47a1.23,1.23,0,0,0-.65-.36,1.29,1.29,0,0,0-.76,0,.64.64,0,0,0-.25,1,1.17,1.17,0,0,0,.66.36,1.18,1.18,0,0,0,.75,0,.58.58,0,0,0,.37-.44.62.62,0,0,0-.12-.56"/><path class="cls-13" d="M54.31,30.84a1.12,1.12,0,0,1-.47.86,1.6,1.6,0,0,1-1.1.24,1.64,1.64,0,0,1-1.06-.44,1.16,1.16,0,0,1-.32-1,1.13,1.13,0,0,1,.32-.76,1.07,1.07,0,0,1,.72-.29l0,.54a.47.47,0,0,0-.34.16.53.53,0,0,0-.17.36.64.64,0,0,0,.21.58,1.31,1.31,0,0,0,.72.26,1.16,1.16,0,0,0,.74-.13.65.65,0,0,0,.3-.54h0a.58.58,0,0,0-.21-.52,1.2,1.2,0,0,0-.34-.17h0l-.06.61-.48,0,.09-1.08,1.52.13,0,.36-.37,0,0,0a.86.86,0,0,1,.33.78Z"/><polygon class="cls-13" points="53.32 27.83 51.59 28.8 51.58 28.47 51.57 28.15 52.77 27.57 52.77 27.57 51.53 27.1 51.52 26.8 51.51 26.49 53.29 27.29 54.36 27.25 54.37 27.52 54.38 27.79 53.32 27.83"/><path class="cls-14" d="M69.67,43.37H73a2.27,2.27,0,0,1,1.56.5,1.77,1.77,0,0,1,.57,1.4,1.67,1.67,0,0,1-.64,1.41.91.91,0,0,1-.23.15,1.8,1.8,0,0,1,.43.25,1.7,1.7,0,0,1,.67,1.44,2.25,2.25,0,0,1-.66,1.75,2.78,2.78,0,0,1-1.91.59H69.67Zm1.38,2.94H72.7a1.25,1.25,0,0,0,.8-.22.81.81,0,0,0,.27-.66.65.65,0,0,0-.28-.58,1.6,1.6,0,0,0-.85-.19H71.05Zm0,3.25H72.8a1.14,1.14,0,0,0,.84-.26,1,1,0,0,0,.29-.8.85.85,0,0,0-.29-.7,1.35,1.35,0,0,0-.87-.23H71.05Z"/><polygon class="cls-14" points="76.99 50.86 76.99 43.37 82.06 43.37 82.06 44.03 82.06 44.7 78.43 44.7 78.43 46.29 81.8 46.29 81.8 46.93 81.8 47.58 78.43 47.58 78.43 49.53 82.22 49.53 82.22 50.2 82.22 50.86 76.99 50.86"/><polygon class="cls-14" points="83.66 43.37 84.38 43.37 85.1 43.37 85.1 50.86 84.39 50.86 83.66 50.86 83.66 43.37"/><path class="cls-14" d="M89.31,43.37h1.44v5.39a2.39,2.39,0,0,1-.56,1.72,2.21,2.21,0,0,1-1.66.59,2.14,2.14,0,0,1-1.71-.64,3,3,0,0,1-.51-2V48h1.37v.45a1.81,1.81,0,0,0,.19,1,.7.7,0,0,0,.65.33.74.74,0,0,0,.61-.24,1.3,1.3,0,0,0,.18-.78Z"/><polygon class="cls-14" points="92.44 43.37 93.16 43.37 93.88 43.37 93.88 50.86 93.16 50.86 92.44 50.86 92.44 43.37"/><polygon class="cls-14" points="96.89 50.86 96.21 50.86 95.54 50.86 95.54 43.37 96.29 43.37 97.05 43.37 99.81 48.63 99.81 43.37 100.49 43.37 101.16 43.37 101.16 50.86 100.44 50.86 99.73 50.86 96.89 45.46 96.89 50.86"/><path class="cls-14" d="M105.89,51.07A3,3,0,0,1,103.5,50a4.28,4.28,0,0,1-.88-2.85,4.36,4.36,0,0,1,.92-2.91A3.09,3.09,0,0,1,106,43.17a3.13,3.13,0,0,1,2.07.68,2.7,2.7,0,0,1,1,1.85H107.6a1.23,1.23,0,0,0-.5-.86,1.53,1.53,0,0,0-1-.37,1.74,1.74,0,0,0-1.47.7,3.24,3.24,0,0,0-.53,2,3.14,3.14,0,0,0,.51,1.94,1.75,1.75,0,0,0,1.49.67h0a1.49,1.49,0,0,0,1.31-.69,2.88,2.88,0,0,0,.38-.93h-1.62V46.82H109v4h-1l-.14-1-.08.12a2.27,2.27,0,0,1-2,1.06Z"/><polygon class="cls-14" points="113.72 43.37 114.43 43.37 115.16 43.37 115.16 50.86 114.44 50.86 113.72 50.86 113.72 43.37"/><polygon class="cls-14" points="118.16 50.86 117.49 50.86 116.81 50.86 116.81 43.37 117.57 43.37 118.33 43.37 121.09 48.63 121.09 43.37 121.76 43.37 122.44 43.37 122.44 50.86 121.72 50.86 121 50.86 118.16 45.46 118.16 50.86"/><path class="cls-14" d="M127.94,45.62a1.16,1.16,0,0,0-.43-.85,1.62,1.62,0,0,0-1-.31,1.28,1.28,0,0,0-.86.26.92.92,0,0,0-.31.73.56.56,0,0,0,.33.52,5.86,5.86,0,0,0,1.35.43,4.8,4.8,0,0,1,2,.85,2.37,2.37,0,0,1-.26,3.2,3.21,3.21,0,0,1-2.07.62,2.94,2.94,0,0,1-2-.66,2.52,2.52,0,0,1-.79-1.87h1.39a1.19,1.19,0,0,0,.39.92,1.59,1.59,0,0,0,1.05.32,2.06,2.06,0,0,0,1.08-.24.78.78,0,0,0,.38-.67.72.72,0,0,0-.28-.63,3.66,3.66,0,0,0-1.16-.41,5.76,5.76,0,0,1-2.19-.86,1.75,1.75,0,0,1-.55-1.43,2.16,2.16,0,0,1,.73-1.73,2.84,2.84,0,0,1,2-.64,2.68,2.68,0,0,1,1.88.66,2.53,2.53,0,0,1,.81,1.79Z"/><polygon class="cls-14" points="132.48 44.7 130.4 44.7 130.4 44.04 130.4 43.37 136 43.37 136 44.03 136 44.7 133.92 44.7 133.92 50.86 133.2 50.86 132.48 50.86 132.48 44.7"/><polygon class="cls-14" points="137.13 43.37 137.84 43.37 138.56 43.37 138.56 50.86 137.85 50.86 137.13 50.86 137.13 43.37"/><polygon class="cls-14" points="141.78 44.7 139.7 44.7 139.7 44.04 139.7 43.37 145.3 43.37 145.3 44.03 145.3 44.7 143.22 44.7 143.22 50.86 142.5 50.86 141.78 50.86 141.78 44.7"/><path class="cls-14" d="M152.07,48a3.42,3.42,0,0,1-.65,2.32,2.8,2.8,0,0,1-2.13.71,2.72,2.72,0,0,1-2.1-.74A3.33,3.33,0,0,1,146.5,48V43.37h1.44v4.72a1.82,1.82,0,0,0,.34,1.21,1.23,1.23,0,0,0,1,.4,1.27,1.27,0,0,0,1-.37,1.91,1.91,0,0,0,.31-1.24V43.37h1.44Z"/><polygon class="cls-14" points="155.35 44.7 153.27 44.7 153.27 44.04 153.27 43.37 158.87 43.37 158.87 44.03 158.87 44.7 156.79 44.7 156.79 50.86 156.07 50.86 155.35 50.86 155.35 44.7"/><polygon class="cls-14" points="160.11 50.86 160.11 43.37 165.19 43.37 165.19 44.03 165.19 44.7 161.55 44.7 161.55 46.29 164.92 46.29 164.92 46.93 164.92 47.58 161.55 47.58 161.55 49.53 165.35 49.53 165.35 50.2 165.35 50.86 160.11 50.86"/><path class="cls-14" d="M170.54,50a4.23,4.23,0,0,1-.9-2.85,4.38,4.38,0,0,1,.9-2.91,3.25,3.25,0,0,1,4.84,0,4.44,4.44,0,0,1,.89,2.91,4.28,4.28,0,0,1-.89,2.85,3.29,3.29,0,0,1-4.84,0m3.79-1a3.18,3.18,0,0,0,.5-1.9,3.35,3.35,0,0,0-.5-1.95,1.7,1.7,0,0,0-2.75,0,3.35,3.35,0,0,0-.5,1.95,3.18,3.18,0,0,0,.5,1.9,1.72,1.72,0,0,0,2.75,0"/><polygon class="cls-14" points="177.81 50.86 177.81 43.37 182.71 43.37 182.71 44.03 182.71 44.7 179.25 44.7 179.25 46.4 182.27 46.4 182.27 47.05 182.27 47.69 179.25 47.69 179.25 50.86 178.53 50.86 177.81 50.86"/><polygon class="cls-14" points="188.6 44.7 186.51 44.7 186.51 44.04 186.51 43.37 192.12 43.37 192.12 44.03 192.12 44.7 190.03 44.7 190.03 50.86 189.32 50.86 188.6 50.86 188.6 44.7"/><polygon class="cls-14" points="193.36 50.86 193.36 43.37 198.43 43.37 198.43 44.03 198.43 44.7 194.8 44.7 194.8 46.29 198.17 46.29 198.17 46.93 198.17 47.58 194.8 47.58 194.8 49.53 198.59 49.53 198.59 50.2 198.59 50.86 193.36 50.86"/><path class="cls-14" d="M206,48.24a3.16,3.16,0,0,1-.94,2.06,2.86,2.86,0,0,1-2.05.77A2.8,2.8,0,0,1,200.69,50a4.38,4.38,0,0,1-.85-2.85,4.54,4.54,0,0,1,.85-2.91A2.79,2.79,0,0,1,203,43.17a2.86,2.86,0,0,1,3,2.67h-1.44a1.45,1.45,0,0,0-.49-1,1.51,1.51,0,0,0-1-.36,1.44,1.44,0,0,0-1.26.7,3.53,3.53,0,0,0-.45,1.93,3.37,3.37,0,0,0,.45,1.88,1.53,1.53,0,0,0,2.3.28,1.65,1.65,0,0,0,.49-1.07Z"/><polygon class="cls-14" points="207.42 43.37 208.13 43.37 208.85 43.37 208.85 46.18 211.55 46.18 211.55 43.37 212.27 43.37 212.99 43.37 212.99 50.86 212.27 50.86 211.55 50.86 211.55 47.47 208.85 47.47 208.85 50.86 208.14 50.86 207.42 50.86 207.42 43.37"/><polygon class="cls-14" points="216.06 50.86 215.39 50.86 214.72 50.86 214.72 43.37 215.47 43.37 216.22 43.37 218.99 48.63 218.99 43.37 219.66 43.37 220.34 43.37 220.34 50.86 219.62 50.86 218.9 50.86 216.06 45.46 216.06 50.86"/><path class="cls-14" d="M222.69,50a4.23,4.23,0,0,1-.89-2.85,4.38,4.38,0,0,1,.89-2.91,3.25,3.25,0,0,1,4.84,0,4.44,4.44,0,0,1,.89,2.91,4.28,4.28,0,0,1-.89,2.85,3.29,3.29,0,0,1-4.84,0m3.79-1a3.11,3.11,0,0,0,.5-1.9,3.27,3.27,0,0,0-.5-1.95,1.7,1.7,0,0,0-2.75,0,3.35,3.35,0,0,0-.49,1.95,3.18,3.18,0,0,0,.49,1.9,1.72,1.72,0,0,0,2.75,0"/><polygon class="cls-14" points="229.96 50.86 229.96 43.37 230.68 43.37 231.4 43.37 231.4 49.53 234.82 49.53 234.82 50.2 234.82 50.86 229.96 50.86"/><path class="cls-14" d="M236.79,50a4.28,4.28,0,0,1-.89-2.85,4.44,4.44,0,0,1,.89-2.91,3.25,3.25,0,0,1,4.84,0,4.38,4.38,0,0,1,.89,2.91,4.23,4.23,0,0,1-.89,2.85,3.29,3.29,0,0,1-4.84,0m3.8-1a3.18,3.18,0,0,0,.49-1.9,3.35,3.35,0,0,0-.49-1.95,1.59,1.59,0,0,0-1.38-.7,1.57,1.57,0,0,0-1.37.7,3.27,3.27,0,0,0-.5,1.95,3.18,3.18,0,0,0,.49,1.9,1.72,1.72,0,0,0,2.76,0"/><path class="cls-14" d="M247,51.07A2.91,2.91,0,0,1,244.64,50a4.28,4.28,0,0,1-.89-2.85,4.36,4.36,0,0,1,.92-2.91,3.09,3.09,0,0,1,2.49-1.08,3.16,3.16,0,0,1,2.07.68,2.78,2.78,0,0,1,1,1.85h-1.44a1.28,1.28,0,0,0-.51-.86,1.51,1.51,0,0,0-1-.37,1.75,1.75,0,0,0-1.47.7,3.24,3.24,0,0,0-.53,2,3.14,3.14,0,0,0,.51,1.94,1.75,1.75,0,0,0,1.49.67h0a1.49,1.49,0,0,0,1.3-.69,2.88,2.88,0,0,0,.38-.93h-1.62V46.82h2.89v4h-1l-.14-1L249,50a2.27,2.27,0,0,1-2,1.06Z"/><polygon class="cls-14" points="253.73 48.05 251.33 43.37 252.18 43.37 253.04 43.37 254.48 46.62 254.47 46.62 255.82 43.37 256.64 43.37 257.45 43.37 255.17 48.02 255.17 50.87 254.46 50.87 253.73 50.87 253.73 48.05"/><path class="cls-15" d="M162.4,13a6.82,6.82,0,0,0-2-.15c-.33,0-.63-.39-1-.39s-3.39,1.08-4.47,1.45c-.38.13-1,0-1.48.15-.73.23-1.21.53-1.88.78-.23.08-1,.27-1.1.34a2.71,2.71,0,0,1-.85.09c-.46,0-.45-.54-.88-.54s-.76.8-.69,1.42a6.51,6.51,0,0,1-.28,1.4,4,4,0,0,0-.13.83c0,.45.34.84.32,1.07a11.3,11.3,0,0,0,.26,2.53c.07.41-.54.92-.54,1.57a3,3,0,0,0,.28,1c.08.16.54.36.5.93a1.67,1.67,0,0,0,.22.65c.07.19,0,.36.28.43a1.89,1.89,0,0,0,.56.08c.2,0,.54-.14.69-.15a4.1,4.1,0,0,0,.75-.21c.31-.15.55-.18.59.08a3.28,3.28,0,0,1-.11,1,1,1,0,0,1-.43.38,1.44,1.44,0,0,1-.48,0c-.21,0-.29.08-.5.08s-.24-.15-.45-.15c-.38,0-.41.36-.45.61a5.68,5.68,0,0,0-.09.81c0,.15-.11.49,0,.67s.28.29.69.35a1.07,1.07,0,0,0,.82.11c.16,0,.58.19.33.56a18.94,18.94,0,0,0-2,.88,7.2,7.2,0,0,1-1.58.54c-.3,0-.34-.23-.54-.26s-.37.33-.43.35a1,1,0,0,0-.39.82c0,.16,0,.51-.06.71-.07.71.23,1,.26,1.56,0,.36.82.64,1.16.6a9.24,9.24,0,0,0,1.84-.56,9.72,9.72,0,0,0,1.79-.17,4.06,4.06,0,0,1,1.72-.35,8.67,8.67,0,0,0,1.43-.24,7.76,7.76,0,0,1,1.27-.13,7.65,7.65,0,0,0,1.45.09c.2,0,1.34-.09,2.65-.11,1.49,0,1.2.32,1.62.28,1-.08,1.77-1.38,1.77-2.54,0-.82-1-1.06-1-1.58-.28-.3-.78.11-1.21,0a5.62,5.62,0,0,0-1.38.28,8.75,8.75,0,0,1-1.12,0c-.41,0-1.28.28-1.49.28s-.54,0-.54-.43a.91.91,0,0,1,.35-.65c.34-.22.88-.26,1.12-.41a4.44,4.44,0,0,0,1-.69.87.87,0,0,0,.17-.56,3.68,3.68,0,0,1-.28-1.36.52.52,0,0,0-.43-.5,5.31,5.31,0,0,1-1.08-.34,1,1,0,0,0-.78.36c-.13.18-.71.52-1,.18a1.29,1.29,0,0,1,0-1c.18-.35,1.1-.21,1.28-.38s.73-.18.86-.28a1,1,0,0,1,.82,0c.18.1.58-.42.67-.66.56-1.56,1.31-2.64,2-4.19.1-.25.79-.79.9-1a8.39,8.39,0,0,1,1-1.77,1.84,1.84,0,0,0,.26-1.1c0-.15.53-.78.56-1.19a2.3,2.3,0,0,0-.69-1.4c-.14-.13-.22-.72-.34-.82m-10,9.58c-.21.11-.67,0-1-.1a1.08,1.08,0,0,1-.08-.59,1,1,0,0,1,.28-.62,7.69,7.69,0,0,1,1.16-.2.31.31,0,0,1,.33.35,1.59,1.59,0,0,1-.67,1.16m.73-4.46c-.06.56-.67.71-1.14,1.08-.24.18-.43-.26-.43-.26-.24-.22-.1-.67-.11-1,0-.69.76-.45,1-.69.62-.15.82.07.73.85m3.61,2.91a1.44,1.44,0,0,1-1,.76c-.13,0-.56-.31-.56-.52s-.11-.67.11-.91c.43,0,.63-.22.91-.3s.54,0,.58.21a3.77,3.77,0,0,1,0,.76M158,16.73a2.34,2.34,0,0,1-.82,1.17,3.06,3.06,0,0,1-1.23-.07c-.36-.13-.36-.73-.33-1.07.07-.67,1.44-.64,2.29-.91.1.09.09.68.09.88"/><path class="cls-15" d="M144.72,28.56c-.21,0-.69,0-.89,0a1.4,1.4,0,0,1-.1-.91,7.24,7.24,0,0,1,2.35-2.22c.16-.1.16-.27.17-.47,0-.35-.12-.46-.5-1.17-.19-.37-.08-.71-.25-.73s-.51.29-.8,0-.09-.83-.09-1a2.39,2.39,0,0,1,.13-1.51A12.56,12.56,0,0,1,146,19.17c.43-.39.74-.65.73-1,0-.78.39-1.1.41-1.36s.31-1,.22-1.19c-.16-.39-.41-1.47-.91-1.18-.3.17-.62.15-1.4.1-1.53-.08-3.34,1.71-4.94,2.36a10.39,10.39,0,0,1-1.15.13c-.33.09-.7.17-.86.51s-.16.52-.41.63-.54.23-.54.35,0,1.05.28,1.16.38,0,.52.35.35.67.63.69a4.37,4.37,0,0,1,1,.36c.33.13,1,.22.84.78a7.68,7.68,0,0,1-.24,1.64c-.26.39-.6.85-1.08.89-.2,0-.57-.07-.78-.05a1.24,1.24,0,0,0-1.14,1.19c0,.41.71,1.24.71,1.25a1.7,1.7,0,0,0,.37.58,1.2,1.2,0,0,1,.3.67c0,.25-.17.5-.19.85a2.42,2.42,0,0,1-.17.64,1.55,1.55,0,0,1-.65.67,10,10,0,0,1-.91.67,2.89,2.89,0,0,0-1.6,1.53,4.2,4.2,0,0,0,.28,1.62,3.09,3.09,0,0,0,.63.89c.25.29.09.77.43.88a8.73,8.73,0,0,1,1,.28c.22.16.71,0,.71,0,.41-.17,1.08-1.19,1.79-1.6s2.66-1.19,3.67-1.83,2.09-1.42,2.24-2.7a1.84,1.84,0,0,0-.23-.86,1.58,1.58,0,0,0-.8-.52"/><path class="cls-15" d="M122.25,23.5a13.78,13.78,0,0,1,1.19-1.21,1.39,1.39,0,0,0,0-.91,7.16,7.16,0,0,0-.39-1.16,8.32,8.32,0,0,0-1.42-.93c-.19-.13-.8,0-1,0a4.49,4.49,0,0,0-.86-.33.79.79,0,0,0-.58.19,3.55,3.55,0,0,0-.49.27,5.76,5.76,0,0,0-.57.36,2.48,2.48,0,0,1-1,.39c-.45.13-.52.21-.71.21a3.38,3.38,0,0,0-.93.33c-.44.2-1,.21-1.25.35a4.3,4.3,0,0,1-1.7.49,4.41,4.41,0,0,0-.39-.51c-.37-.27-.47-.39-.82-.44-.25.11-.64.25-.92.41-.27.44-1,.68-1,1.81,0,.2,0,.65.09,1.6a13.36,13.36,0,0,0,.26,1.58c.07.48.27,1,.27,1.23s.08.61.1.84c.08,0,.14.36.19.43.1.31.05.52.22.8a1.33,1.33,0,0,0,.39.35,4.87,4.87,0,0,0,1.09.1c.2,0,.48-.12.67-.12s.54.33.87.24c.14,0,.28.38.28.54a10.38,10.38,0,0,0-.18,1.6,5.83,5.83,0,0,0,0,1.19c0,.19,0,.66,0,.86-.06,1-.39,1.25-1.07,1.25-.19,0-.65-.47-1.33-.45-.1,0-.92,0-.9.37s1.08.86,1.41,1.43c.23.4.27.72.49.94a3,3,0,0,0,.93.46c.23.11.32.29.55.43s.61.19.7.3a.57.57,0,0,0,.45.31,4.42,4.42,0,0,0,1-.51c.5-.25.78-.93,1.07-1.07A2.06,2.06,0,0,0,118,36a36,36,0,0,0,0-5.3,3.06,3.06,0,0,1-.18-1.18c0-.41.43-.72.57-.66a.62.62,0,0,0,.62-.08,10.9,10.9,0,0,0,.82-1.05,33.3,33.3,0,0,1,1.87-3.26,9,9,0,0,0,.57-1m-4.78.06a4.29,4.29,0,0,1-.88.78c-.49.3-.68.59-1.07.82a3.53,3.53,0,0,1-1.12.35.65.65,0,0,1-.64-.64.82.82,0,0,1,.45-.76,11.75,11.75,0,0,1,1.48-.63,3.17,3.17,0,0,0,.57-.37c.19-.17.47-.07.76-.25a1.83,1.83,0,0,1,.74-.1c.14,0-.1.47-.29.8"/><path class="cls-15" d="M126.14,30.82c-.31-.42-1.23-1.52-1.65-1.44a5.06,5.06,0,0,1-.68.1c-.19,0-.56-.28-.8-.24a2.29,2.29,0,0,1-.81-.08c-.19-.05-.68-.43-.81-.41-.41.06-.54-.23-.8-.19-.33.25-.11.84-.27,1.06a.93.93,0,0,0-.06.73,2.25,2.25,0,0,1,.31,1.17c0,.31.51.55.53,1a12.26,12.26,0,0,0,.66,1.21c.11.28,0,.68,0,.9.09.43.37.68.63.68s.45-.29.82-.39.57,0,.78,0a2.19,2.19,0,0,0,.93-.37,4.41,4.41,0,0,0,.53-.62c.2-.24.26-.72.45-.92s.44-.32.58-.76a1.94,1.94,0,0,0,0-.82,3.53,3.53,0,0,0-.43-.63"/><path class="cls-15" d="M110.74,33.69a1.73,1.73,0,0,0,.13-.78,1.25,1.25,0,0,0,.1-.7c0-.16-.23-.2-.43-.2a10.37,10.37,0,0,0-1.23,0,3.5,3.5,0,0,1-1.07.26c-.24,0-.28-1.25-1-1.25-.2,0-.54.29-.8.43a3,3,0,0,0-1.09,1.87c-.07.25-.43.62-.43.82s.21.5.21.7-.15.68-.15.88c0,.85.69,1.17,1.42,1.17.35,0,1-.44,1.19-.49s.57.12.9-.09a2.56,2.56,0,0,0,.78-.53c.27-.32.2-.66.39-1.11.07-.18.47-.28.55-.41a5.61,5.61,0,0,1,.53-.59"/><path class="cls-15" d="M127.66,13.78a1.28,1.28,0,0,1-.9-.8c-.09-.21-.54-.19-.76-.25s-.54-.33-.74-.31a11.23,11.23,0,0,0-1.7.39c-.47.15-2.45.6-3,.7-.31.06-.33-.29-.17-.51.62-.52.89-.53.85-1.54s-.52-1.17-.68-1.5-.14-.84-.29-1-.79-.19-.88-.27c-.25-.2-.25-.39-.49-.39a7.46,7.46,0,0,1-1,0,5.33,5.33,0,0,0-.75-.08c-.35,0-.35.14-.64.24s-.5,0-.64.07a1.63,1.63,0,0,1-.65.26c-.4,0-.8-.16-1.13.19a.68.68,0,0,0-.23.63c.11.31.89,1.44.76,1.85a6.5,6.5,0,0,1-.24.74l-.23.59a1.07,1.07,0,0,0-.14.62,1,1,0,0,0,.59.45c.25,0,.49-.1.62.2a1.29,1.29,0,0,1,.1.6c-.14.33-.62.45-.88.51a19.92,19.92,0,0,0-2.15.66c-.27.22-.7,0-1.17.16a18.34,18.34,0,0,1-2.75.55c-.31,0-1,.39-1.15.39s-.34-.34-.53-.3a6.35,6.35,0,0,0-2,1,.86.86,0,0,0-.19.7c0,.41.06.79,0,.88-.06.41-.08.9.27,1.07s.79,0,1,.06c.44.2.26.45.56.39a.9.9,0,0,0,.68-.39,3,3,0,0,1,.77-.27c.37,0,.74,0,.93-.24a1.63,1.63,0,0,1,.57,0,1.76,1.76,0,0,0,.72,0,5.05,5.05,0,0,1,.82-.23,1.71,1.71,0,0,0,.76-.1c.24-.13.45,0,.9-.23.27-.14.8-.14,1-.24.31-.2.75,0,1-.27a25.79,25.79,0,0,1,3.55-.88c.61-.17,1.32-.6,1.51-.64.46-.08.84.1,1.05,0a8.42,8.42,0,0,1,1.09-.39l1.08-.33,1.19-.14c.2,0,1.3-.09,1.5-.1.55,0,.72.37.88.26.47-.3,1.58-.75,1.64-1.39a9,9,0,0,0,0-.92.56.56,0,0,0-.41-.45"/><path class="cls-15" d="M257.5,18.24c-.24-.28-.63-.16-.81-.29s-.49-.14-.71-.2-.43-.41-.64-.47a2.3,2.3,0,0,0-.77,0,2.27,2.27,0,0,1-1.13.62c-.21,0-.56.08-.58-.18a3.81,3.81,0,0,1,.2-1.26c.1-.39.22-.84.25-1s.28-.77.3-.85c.27-.82.25-1.69,1-2.41.43-.43,1.37-.94,1.27-1.06S256,10.3,256,10a.77.77,0,0,0-.24-.69,6.3,6.3,0,0,0-.94-.59.89.89,0,0,0-.87.1c-.13.1-.19.32-.26.38-.26.17-2.66.54-2.91,1.53-.13.49.59.77.58,1.4a2.14,2.14,0,0,1-.21.76c-.11.22-.28.65-.46.7s-.53,0-.82.4c-.43.64.08.78.09.95s-.35.44-.46.54a1.18,1.18,0,0,1-.57.45c-.13,0-.14.71.19,1s.7.11.88.28c.21.52-.45,1-1,1-.72,0-.21-.94-.53-.85-.6.16-1.27-.3-1.08-.57s.92-1.26.89-1.29c.77-1.58,1.21-1.94,1.18-2.39s-.49-.76-.55-.81,0-.87,0-1a3.07,3.07,0,0,1,.87-1.13c.35-.32.72-1,.44-1.31S249.68,8,249.21,8a1.14,1.14,0,0,0-.55.12c-.13.09-.38,0-.56.05-.45.21-.54,1-.69,1.29s-.73,1.22-.93,1.22-.56-.64-.77-.63-.71.54-.7.7.38.68.42,1.12a2.25,2.25,0,0,1-.38,1c-.21.36-.36,1.15,0,1.25s.18-.22.62-.29.78-.36.89-.34.9.74.53,1.26c-.14.2-.49,1-1,.93-.16,0-.24-.38-.41-.51s-.87.14-1.09-.05-.29-.1-.28-.49a8.4,8.4,0,0,0-.3-2.11.84.84,0,0,1-.21-.62c0-.44-.07-1.06-.31-1a1,1,0,0,0-.64.35,1.73,1.73,0,0,0-.39.92,4.26,4.26,0,0,1,.15.62,18,18,0,0,1,0,1.88c0,.34.26.9.22,1.31,0,.21-.08,1.74-.08,1.94a1,1,0,0,0,.51.94c.22.09.35-.15.49-.26s.37-.18.34-.48.06-.74.3-.83.49.34.43.55a.55.55,0,0,0,.22.67c.13.13.53-.22.73-.29.37-.14.66-.28.8.07a.36.36,0,0,1-.08.43,2,2,0,0,1-.57.38c-.19,0-.53.24-.74.25a6.85,6.85,0,0,0-1.33.24,6.09,6.09,0,0,1-.82.06c-.22,0-.69.31-.95.25a.88.88,0,0,1-.48-.49c-.09-.23.28-.56.34-1,0-.2,0-.63,0-.84a4.29,4.29,0,0,0-.22-1.14c0-.25-.07-1.36-.1-1.7s.08-.61.05-.87a2.2,2.2,0,0,1,0-.69.73.73,0,0,0,0-.62c-.13-.2,0-.67-.08-1s0-.5-.13-.82-.07-.36-.29-.44-.2.21-.36.22a5.27,5.27,0,0,0-.69,0c-.38.09-.72.68-.47.83a3.49,3.49,0,0,1,.22,1.44c0,1.38.24,2,.18,2.52-.09.93-.18,2.17-.18,2.38a5,5,0,0,0,.2,1.16,3.72,3.72,0,0,1,.3.8c0,.2-.32.34-.39.39a3.8,3.8,0,0,1-1.15.45.44.44,0,0,1-.59-.44,6.31,6.31,0,0,0-.27-1.72c-.16-.13-.38,0-.38,0-.57.85-.84,1.65-1.34,2.22a1.77,1.77,0,0,1-.55.36.81.81,0,0,0-.3.78c.35,1.16-.05,1.31,0,1.92a4.5,4.5,0,0,0,.62,1.91.68.68,0,0,0,.8.33c.78-.14,1.28-.95,2.09-1.59a3.46,3.46,0,0,0,.48-.57,5.67,5.67,0,0,1,1-1.33,6.35,6.35,0,0,1,1.63-.66c.41-.11,1.07-.21,1.38-.28a17.18,17.18,0,0,1,1.8-.22,7.12,7.12,0,0,0,1.11-.24,3.17,3.17,0,0,1,1.11-.26,4.89,4.89,0,0,0,2.2-.23c.19-.1,1.1-.08,1.4-.2a4.74,4.74,0,0,1,1.33-.15,1,1,0,0,1-.56,1.07c-.22.05-.79.49-1,.49a2.76,2.76,0,0,1-.91-.22c-.17,0-.56.07-.89,0a3.39,3.39,0,0,0-1.1,0c-.18.11-.51.31-.46.34-.65.19-.6.16-.77.27s-.79.11-.93.17a9.76,9.76,0,0,1-1.25.3c-.28.07-.84,0-1.09.1-.08,0-.25.18-.44.29s-.93-.13-1.17.09c-.73.66-.67,1.78-.84,2a2,2,0,0,0-.22,1.08c0,.37,0,.57.3.73a1.29,1.29,0,0,0,.8,0,2.25,2.25,0,0,0,.95-.5,1.66,1.66,0,0,1,.83-.55c.22,0,.82-.21.76.07a4.21,4.21,0,0,1-.36,1c-.11.22-.06.78-.14,1s-.06.33-.28.46a2.61,2.61,0,0,1-.79.4,8.43,8.43,0,0,0-1.31.35c-.35.19-.84.66-1.06.67s-.88-.29-1.09-.29a2.16,2.16,0,0,0-1.5.94,4.36,4.36,0,0,0-.25,1.23c0,.21-.14.76.13.9a2.81,2.81,0,0,1,.56.25c.48.47.82.31,1.23.31a14.41,14.41,0,0,1,1.37-.5,10,10,0,0,0,1.67-.29A10.8,10.8,0,0,1,244.2,32c.58.06.62.42.48.68-.46.83-.83,2.67-1.74,3-.43.14-1.29.24-2.2.41-.52.09-1.05.08-.9.44s1.69,1,1.7,1.61c0,.34-.1.89.1,1.06a3.07,3.07,0,0,0,1.76,0,4.44,4.44,0,0,1,1.18-.32A10.41,10.41,0,0,0,246,38.3c.73-.23.67-1.24,1-1.94.06-.08.54-.48.52-.89a4,4,0,0,1,.28-1.36,8.66,8.66,0,0,0,.15-1.18,13.12,13.12,0,0,0-.09-1.38c0-.53,1.59-.82,2-.9.25,0,.6-.22.86-.29.52-.14.8-.14,1.26-.24.27-.05.52-.37.73-.62a3.18,3.18,0,0,0,.31-1.25c.08-.37-.39-.47-.48-.49-.6-.19-1-.44-1.21-.5-.67-.16-.94-.61-1.23-.63s-.42.34-.71.38a11,11,0,0,0-1.08.43c-.29.07-.56,0-.61-.12a1.71,1.71,0,0,1,.21-1.19A6,6,0,0,1,249,25.06a2.56,2.56,0,0,0,.79-.84,3.77,3.77,0,0,1,2.15-1.52,2.53,2.53,0,0,1,1.25,0,1.29,1.29,0,0,0,1,.09,1.1,1.1,0,0,1,.77-.33,4.61,4.61,0,0,0,2.53-.67,3.89,3.89,0,0,0,.46-1.67,3.11,3.11,0,0,0-.43-1.85"/><path class="cls-15" d="M82.32,16.32a2.75,2.75,0,0,0-.74-1.15c-.15-.17-.57-.26-.69-.33a2.13,2.13,0,0,0-.78-.2c-.2,0-1,0-1.21,0-.37-.07-.84-.06-1.18-.13s-.54-.39-.73-.41a.47.47,0,0,0-.46.2,3.38,3.38,0,0,1-.75.58.44.44,0,0,0,0,.48,2.09,2.09,0,0,1,.66,1.7c0,1-.34,1.5-.4,2.64,0,.59-.39.83-.65,1.21a5.14,5.14,0,0,1-1.35.61,4.92,4.92,0,0,1-1,.07c-.46,0-.87.34-1.33.42s-1,.3-1,.95a8.18,8.18,0,0,1-.09,1.65,2.34,2.34,0,0,0,.19.8,4.22,4.22,0,0,0,.22,1.17.7.7,0,0,0,.45.38c.19.09.53,0,.72-.09a6.13,6.13,0,0,1,.94-.34,3.32,3.32,0,0,0,1-.13s.42.09.53.32A20.16,20.16,0,0,1,74.79,29c0,.49-.66.81-1,1a18.64,18.64,0,0,1-2.13,1.19,3.8,3.8,0,0,0-1.23.46,8.06,8.06,0,0,1-1.15.68c-.22.1-.52,0-.74.07a.77.77,0,0,0-.48.66c0,.14.2.56.28.88s0,.82.22,1a7.42,7.42,0,0,1,.79.61c.37.39.84,1.28,1.22,1.12a15.85,15.85,0,0,0,1.93-1.39,7.21,7.21,0,0,0,1.23-.52,8.79,8.79,0,0,1,2-1.19,14.61,14.61,0,0,0,1.57-.71c.39-.25.8-1.19,1.48-1.41a5.94,5.94,0,0,0,1.71-1.05,1.39,1.39,0,0,0,.56-.88c.14-.78.41-1.3.45-1.61s-.12-.45-.15-.75,0-.33-.08-.48-.29-.26-.28-.83c0-.38.06-1,.09-1.22.07-.59.18-1,.21-1.44.09-1.3.12-1.75.13-2.36a9.9,9.9,0,0,1,.17-1.3c.24-.57.54-1.06.59-1.26a5.75,5.75,0,0,0,0-1.16c0-.27.11-.4.06-.76"/><path class="cls-15" d="M95.92,30.58a3.75,3.75,0,0,0-1.16-.13,1.81,1.81,0,0,1-.74-.29,3.49,3.49,0,0,1-.75-.16,5.36,5.36,0,0,0-1.06-.14,2.39,2.39,0,0,1-1.48-.66c-.53-.6-.37-1.17-.54-1.76a2.54,2.54,0,0,1-.07-1,5.92,5.92,0,0,1,.67-2.14,5.53,5.53,0,0,0,1.94-.94,13.65,13.65,0,0,1,1.21-.67c.25-.18.45-.5.88-.62s.65-.18,1-.26a.6.6,0,0,0,.49-.56,3.24,3.24,0,0,0-.17-1.08c-.27-.45-.42-1.42-.82-1.51-.69-.16-1.14-.66-1.44-.51s-.45.41-.9.51c-.24.4-.81.24-.9-.31a4.24,4.24,0,0,1,.21-1c.28-.67,1-.91,1.09-2A4.26,4.26,0,0,0,93,13.79c-.11-.24-.29-.51-.47-.54a1.56,1.56,0,0,1-.61-.14c-.21-.15-.27-.4-.74-.43a8,8,0,0,0-1,.19,7,7,0,0,0-.8-.16c-.2,0-.6.2-.89.19s-.82-.22-1-.2c-.4,0-.65.07-.79.55a5.67,5.67,0,0,0,0,1.37,16,16,0,0,1-.44,2,5,5,0,0,0-.29,1.26c0,.21,0,1.26-.12,2.07,0,.16-.22.8-.28,1.33s-.24.52-.3,1.3c0,.15-.33.63-.35.8a25.08,25.08,0,0,0-.42,2.52,5.83,5.83,0,0,0,.16,1.57,4.57,4.57,0,0,1,.13,1l.07,1.06c0,.2.31,1.42.35,1.69a8.55,8.55,0,0,0,.1,1.42A4.7,4.7,0,0,0,86,33.91a2.81,2.81,0,0,0,.81.45c.36.12,1.15,0,1.63.1s.91.31,1.11.31c0,0,1,0,1.31,0a3.52,3.52,0,0,1,1.33.13,2.73,2.73,0,0,0,.86.38,3.89,3.89,0,0,0,1.22-.3c.37-.14,1,0,1.25-.19s.35-.65.49-1.09.48-1.13.58-1.66a1.39,1.39,0,0,0-.65-1.48"/><path class="cls-15" d="M195.47,31.22a2.75,2.75,0,0,0-.11-.82c-.25-.64-.86-.77-1.21-1a6,6,0,0,0-.92-.51,5,5,0,0,0-.93-.25,3.81,3.81,0,0,0-.86.09c-.32.07-.48.35-.9.35a32.6,32.6,0,0,0-3.46.08c-.28-.23-.13-1-.1-1.92a1.43,1.43,0,0,1,.13-.74,1.4,1.4,0,0,0,.19-.69,1.19,1.19,0,0,1,.25-.67,1.5,1.5,0,0,0,.3-.71c0-1-.51-.63-.44-1.57s.92-.89,1.87-1.31a2.82,2.82,0,0,0,.94-.63,4.09,4.09,0,0,1,1.22-1c.84-.59,1.48-.58,1.55-1.44,0-.12-.33-.39-.39-.61a2.69,2.69,0,0,0-.3-.92c-.27-.37-.66-.56-1-.93a1.14,1.14,0,0,0-.66-.39,6.25,6.25,0,0,1-.78.12,2,2,0,0,0-.88.1,15.2,15.2,0,0,1-3.15,1.33c-.16,0-.44.18-.52.2s-.42.13-.74.2a40.09,40.09,0,0,1-4.19.71,13.78,13.78,0,0,0-1.76-.43c-.48.24-1,.28-1,.83,0,.21.11.9.09,1.11a2.7,2.7,0,0,0,.21,1.15,3.1,3.1,0,0,1,.78,1.43c.06.53,0,1,.4,1.19a2.48,2.48,0,0,0,1.3-.09c.22,0,.68-.2,1-.16.18.07.21.54.21.93a3.51,3.51,0,0,1-.21,1.18c-.27.78-.35,2.84-2.06,3.53-.8.31-1.89.86-2.63,1.09-.24.07-.69.1-1,.19-.79.28-2.2.86-2.4.91-.38.09-1-.14-1.17-.1s-1.72.61-1.94,1.08a2.74,2.74,0,0,1,.11,1.22,3,3,0,0,0,0,1c.72.68,1.46,1.66,1.81,1.7s3.13-1.25,4.72-1.8a18,18,0,0,1,3.84-.79c.62,0,1.49.15,2.18.05l1.91-.27a5.82,5.82,0,0,1,2-.16c.39,0,1.6-.05,2,0a20.77,20.77,0,0,0,2.15.18c.48,0,.86-.11,1.3-.11s1.06.21,1.27.22.53,0,1.17-.07c.24,0,.44-.36.6-.61a1.77,1.77,0,0,0,.3-.71.77.77,0,0,0-.08-.44c-.07,0-.12-.2-.12-.29"/><path class="cls-15" d="M230.33,34.63c-.12-.21-.52-.24-.76-.34-1-.41-1.56-.61-2.21-.83-.25-.08-.6-.46-1-.63a6.18,6.18,0,0,1-1.27-.5,13.56,13.56,0,0,0-2.23-1.53c-.89-.45-1.65-2-2.17-2.45a15,15,0,0,1-2.95-3,1.68,1.68,0,0,1-.2-1.38,3.57,3.57,0,0,1,.59-.86,7.09,7.09,0,0,1,1.78-.67c.32-.08.72-.1,1.16-.16a2.85,2.85,0,0,0,1-.43,7.23,7.23,0,0,0,1.73-.74c.34-.23.56-.55.75-.55.35,0,.37-.14.36-.46,0-.78-.37-1.7-.94-1.79s-1.13,0-1.36-.43-1.56,0-1.56,0c-.21,0-.66.47-1,.71a4.08,4.08,0,0,1-.87.3c-.25.09-.65.29-.74.33a1,1,0,0,1-.59.15c-.18,0,0-.72,0-.85.23-.65.5-1.18.61-1.48s-.11-.43-.16-.78.12-.63-.27-.83a2.6,2.6,0,0,1-1.16-.95c-.09-.17-1.08,0-1.45-.06s-.43.26-.79.25-.34-.25-1-.08c-.21.06-.42.11-.4.46a4.11,4.11,0,0,1,.06,1.29,5.7,5.7,0,0,1-.16,1.5,5,5,0,0,0-.49,2.38,6.7,6.7,0,0,1-2.57.9c-.53,0-1.28-.11-1.56,0s-.47.3-.65.41-.54.13-.75.29-.34.43-.6.62a.94.94,0,0,0-.34,1A1.91,1.91,0,0,0,207.47,25c.5.07.7.39,1.09.51a1.08,1.08,0,0,0,.71,0c.24,0,.53-.19.74-.2s.34,0,.55,0,.69-.16.72,0a2.35,2.35,0,0,1-.29,1,6.08,6.08,0,0,1-1.39,2.44,42.3,42.3,0,0,1-3.6,3.45c-.13.08-.45.13-.54.24a6.43,6.43,0,0,1-.77.58,3.16,3.16,0,0,1-1.12.65c-.53.17-.65.42-.49.57a4.53,4.53,0,0,0,.76.26c.27.12.27.77.45.9s.35.47.59.51a2.37,2.37,0,0,0,.87-.16c.35-.17,1.14-.13,1.59-.41s1.34-.68,1.73-.94a7.71,7.71,0,0,0,2.33-1.42c.94-1,1.5-1.38,2.27-2.21s1.45-2.46,1.57-2.39c.34.21,1.25,1.25,2.27,2a11.15,11.15,0,0,1,1.05,1.13,20.22,20.22,0,0,0,1.63,2.07c1.55,1.42,1.12,1.68,1.43,2.57a1.37,1.37,0,0,0,.95.65c.5.13,1-.15,1.66.23a2.83,2.83,0,0,0,1.06.2,11.11,11.11,0,0,0,1.21,0,9.2,9.2,0,0,0,1.17.07c.15,0,.37,0,.52-.1s.3-.41.52-.44A1.74,1.74,0,0,0,230,36c.19-.23.09-.6.1-.82s.35-.39.25-.58"/></g></g></svg>